# Blender v2.72 (sub 0) OBJ File: 'srd.blend'
# www.blender.org
mtllib srd.mtl
o Plane.001
v -5.385175 0.000000 1.000000
v -3.385175 0.000000 1.000000
v -5.385175 0.000000 -1.000000
v -3.385175 0.000000 -1.000000
v -5.385175 0.500000 1.000000
v -3.385175 0.500000 1.000000
v -5.385175 0.500000 -1.000000
v -3.385175 0.500000 -1.000000
vn 0.000000 -1.000000 0.000000
vn 0.000000 1.000000 0.000000
vn 0.000000 0.000000 -1.000000
vn 1.000000 0.000000 0.000000
vn 0.000000 0.000000 1.000000
vn -1.000000 0.000000 0.000000
usemtl None
s off
f 1//1 3//1 4//1 2//1
f 5//2 6//2 8//2 7//2
f 4//3 3//3 7//3 8//3
f 2//4 4//4 8//4 6//4
f 1//5 2//5 6//5 5//5
f 3//6 1//6 5//6 7//6
o Plane
v -3.214317 0.000000 -5.886350
v -2.088444 0.000000 -5.544823
v -1.050833 0.000000 -4.990210
v -0.141360 0.000000 -4.243826
v 0.605026 0.000000 -3.334355
v 1.159641 0.000000 -2.296746
v 1.501172 0.000000 -1.170874
v 1.616494 0.000000 -0.000006
v 1.501174 0.000000 1.170862
v 1.159646 0.000000 2.296735
v 0.605032 0.000000 3.334345
v -0.141352 0.000000 4.243818
v -1.050824 0.000000 4.990203
v -2.088433 0.000000 5.544818
v -3.214305 0.000000 5.886348
v -4.385173 0.000000 6.001669
v -5.556041 0.000000 5.886349
v -6.681913 0.000000 5.544820
v -7.719523 0.000000 4.990206
v -8.628996 0.000000 4.243821
v -9.375381 0.000000 3.334348
v -9.929995 0.000000 2.296738
v -10.271524 0.000000 1.170867
v -10.386845 0.000000 -0.000000
v -10.271523 0.000000 -1.170868
v -9.929995 0.000000 -2.296739
v -9.375381 0.000000 -3.334348
v -8.628996 0.000000 -4.243821
v -7.719524 0.000000 -4.990205
v -6.681914 0.000000 -5.544819
v -5.556043 0.000000 -5.886348
v -4.385175 0.000000 -6.001669
v -3.166429 0.000000 -6.127098
v -1.994509 0.000000 -5.771602
v -0.914461 0.000000 -5.194306
v 0.032210 0.000000 -4.417396
v 0.809123 0.000000 -3.470728
v 1.386421 0.000000 -2.390681
v 1.741921 0.000000 -1.218762
v 1.861959 0.000000 -0.000006
v 1.741923 0.000000 1.218750
v 1.386425 0.000000 2.390670
v 0.809129 0.000000 3.470718
v 0.032218 0.000000 4.417388
v -0.914450 0.000000 5.194300
v -1.994498 0.000000 5.771598
v -3.166417 0.000000 6.127097
v -4.385173 0.000000 6.247133
v -5.603929 0.000000 6.127097
v -6.775848 0.000000 5.771599
v -7.855896 0.000000 5.194302
v -8.802566 0.000000 4.417390
v -9.579477 0.000000 3.470721
v -10.156775 0.000000 2.390674
v -10.512272 0.000000 1.218755
v -10.632308 0.000000 -0.000000
v -10.512272 0.000000 -1.218755
v -10.156775 0.000000 -2.390674
v -9.579477 0.000000 -3.470721
v -8.802566 0.000000 -4.417390
v -7.855897 0.000000 -5.194302
v -6.775850 0.000000 -5.771599
v -5.603930 0.000000 -6.127097
v -4.385175 0.000000 -6.247133
v -3.214317 0.300084 -5.886350
v -2.088444 0.300084 -5.544823
v -1.050833 0.300084 -4.990210
v -0.141360 0.300084 -4.243826
v 0.605026 0.300084 -3.334355
v 1.159641 0.300084 -2.296746
v 1.501172 0.300084 -1.170874
v 1.616494 0.300084 -0.000006
v 1.501174 0.300084 1.170862
v 1.159646 0.300084 2.296735
v 0.605032 0.300084 3.334345
v -0.141352 0.300084 4.243818
v -1.050824 0.300084 4.990203
v -2.088433 0.300084 5.544818
v -3.214305 0.300084 5.886348
v -4.385173 0.300084 6.001669
v -5.556041 0.300084 5.886349
v -6.681913 0.300084 5.544820
v -7.719523 0.300084 4.990206
v -8.628996 0.300084 4.243821
v -9.375381 0.300084 3.334348
v -9.929995 0.300084 2.296738
v -10.271524 0.300084 1.170867
v -10.386845 0.300084 -0.000000
v -10.271523 0.300084 -1.170868
v -9.929995 0.300084 -2.296739
v -9.375381 0.300084 -3.334348
v -8.628996 0.300084 -4.243821
v -7.719524 0.300084 -4.990205
v -6.681914 0.300084 -5.544819
v -5.556043 0.300084 -5.886348
v -4.385175 0.300084 -6.001669
v -3.166429 0.300084 -6.127098
v -1.994509 0.300084 -5.771602
v -0.914461 0.300084 -5.194306
v 0.032210 0.300084 -4.417396
v 0.809123 0.300084 -3.470728
v 1.386421 0.300084 -2.390681
v 1.741921 0.300084 -1.218762
v 1.861959 0.300084 -0.000006
v 1.741923 0.300084 1.218750
v 1.386425 0.300084 2.390670
v 0.809129 0.300084 3.470718
v 0.032218 0.300084 4.417388
v -0.914450 0.300084 5.194300
v -1.994498 0.300084 5.771598
v -3.166417 0.300084 6.127097
v -4.385173 0.300084 6.247133
v -5.603929 0.300084 6.127097
v -6.775848 0.300084 5.771599
v -7.855896 0.300084 5.194302
v -8.802566 0.300084 4.417390
v -9.579477 0.300084 3.470721
v -10.156775 0.300084 2.390674
v -10.512272 0.300084 1.218755
v -10.632308 0.300084 -0.000000
v -10.512272 0.300084 -1.218755
v -10.156775 0.300084 -2.390674
v -9.579477 0.300084 -3.470721
v -8.802566 0.300084 -4.417390
v -7.855897 0.300084 -5.194302
v -6.775850 0.300084 -5.771599
v -5.603930 0.300084 -6.127097
v -4.385175 0.300084 -6.247133
vn 0.000000 -1.000000 0.000000
vn 0.000000 1.000000 0.000000
vn -0.098000 0.000000 0.995200
vn 0.956900 0.000000 -0.290300
vn -0.290300 0.000000 0.956900
vn 0.471400 0.000000 -0.881900
vn -0.995200 0.000000 0.098000
vn 0.471400 0.000000 0.881900
vn -0.995200 0.000000 -0.098000
vn 0.956900 0.000000 0.290300
vn -0.290300 0.000000 -0.956900
vn -0.098000 0.000000 -0.995200
vn 0.881900 0.000000 -0.471400
vn 0.290300 0.000000 -0.956900
vn -0.956900 0.000000 0.290300
vn 0.634400 0.000000 0.773000
vn 0.995200 0.000000 0.098000
vn -0.471400 0.000000 -0.881900
vn 0.773000 0.000000 -0.634400
vn 0.098000 0.000000 0.995200
vn 0.098000 0.000000 -0.995200
vn -0.881900 0.000000 0.471400
vn 0.773000 0.000000 0.634400
vn 0.995200 0.000000 -0.098000
vn -0.634400 0.000000 -0.773000
vn 0.634400 0.000000 -0.773000
vn 0.290300 0.000000 0.956900
vn -0.773000 0.000000 0.634400
vn 0.881900 0.000000 0.471400
vn -0.773000 0.000000 -0.634400
vn -0.634400 0.000000 0.773000
vn -0.881900 0.000000 -0.471400
vn -0.471400 0.000000 0.881900
vn -0.956900 0.000000 -0.290300
usemtl None
s off
f 13//7 45//7 46//7 14//7
f 35//7 67//7 68//7 36//7
f 24//7 56//7 57//7 25//7
f 15//7 47//7 48//7 16//7
f 37//7 69//7 70//7 38//7
f 26//7 58//7 59//7 27//7
f 17//7 49//7 50//7 18//7
f 39//7 71//7 72//7 40//7
f 28//7 60//7 61//7 29//7
f 40//7 72//7 41//7 9//7
f 19//7 51//7 52//7 20//7
f 30//7 62//7 63//7 31//7
f 10//7 42//7 43//7 11//7
f 21//7 53//7 54//7 22//7
f 32//7 64//7 65//7 33//7
f 12//7 44//7 45//7 13//7
f 23//7 55//7 56//7 24//7
f 34//7 66//7 67//7 35//7
f 14//7 46//7 47//7 15//7
f 36//7 68//7 69//7 37//7
f 25//7 57//7 58//7 26//7
f 16//7 48//7 49//7 17//7
f 38//7 70//7 71//7 39//7
f 27//7 59//7 60//7 28//7
f 18//7 50//7 51//7 19//7
f 29//7 61//7 62//7 30//7
f 9//7 41//7 42//7 10//7
f 20//7 52//7 53//7 21//7
f 31//7 63//7 64//7 32//7
f 11//7 43//7 44//7 12//7
f 22//7 54//7 55//7 23//7
f 33//7 65//7 66//7 34//7
f 77//8 78//8 110//8 109//8
f 99//8 100//8 132//8 131//8
f 88//8 89//8 121//8 120//8
f 79//8 80//8 112//8 111//8
f 101//8 102//8 134//8 133//8
f 90//8 91//8 123//8 122//8
f 81//8 82//8 114//8 113//8
f 103//8 104//8 136//8 135//8
f 92//8 93//8 125//8 124//8
f 104//8 73//8 105//8 136//8
f 83//8 84//8 116//8 115//8
f 94//8 95//8 127//8 126//8
f 74//8 75//8 107//8 106//8
f 85//8 86//8 118//8 117//8
f 96//8 97//8 129//8 128//8
f 76//8 77//8 109//8 108//8
f 87//8 88//8 120//8 119//8
f 98//8 99//8 131//8 130//8
f 78//8 79//8 111//8 110//8
f 100//8 101//8 133//8 132//8
f 89//8 90//8 122//8 121//8
f 80//8 81//8 113//8 112//8
f 102//8 103//8 135//8 134//8
f 91//8 92//8 124//8 123//8
f 82//8 83//8 115//8 114//8
f 93//8 94//8 126//8 125//8
f 73//8 74//8 106//8 105//8
f 84//8 85//8 117//8 116//8
f 95//8 96//8 128//8 127//8
f 75//8 76//8 108//8 107//8
f 86//8 87//8 119//8 118//8
f 97//8 98//8 130//8 129//8
f 40//9 9//9 73//9 104//9
f 30//10 31//10 95//10 94//10
f 58//11 57//11 121//11 122//11
f 43//12 42//12 106//12 107//12
f 15//13 16//13 80//13 79//13
f 37//14 38//14 102//14 101//14
f 65//15 64//15 128//15 129//15
f 50//16 49//16 113//16 114//16
f 22//17 23//17 87//17 86//17
f 72//18 71//18 135//18 136//18
f 29//19 30//19 94//19 93//19
f 57//9 56//9 120//9 121//9
f 42//20 41//20 105//20 106//20
f 14//21 15//21 79//21 78//21
f 36//22 37//22 101//22 100//22
f 64//13 63//13 127//13 128//13
f 49//23 48//23 112//23 113//23
f 21//24 22//24 86//24 85//24
f 71//17 70//17 134//17 135//17
f 28//25 29//25 93//25 92//25
f 56//26 55//26 119//26 120//26
f 41//27 72//27 136//27 105//27
f 13//28 14//28 78//28 77//28
f 35//29 36//29 100//29 99//29
f 63//21 62//21 126//21 127//21
f 48//30 47//30 111//30 112//30
f 20//31 21//31 85//31 84//31
f 70//24 69//24 133//24 134//24
f 27//32 28//32 92//32 91//32
f 55//33 54//33 118//33 119//33
f 12//34 13//34 77//34 76//34
f 34//35 35//35 99//35 98//35
f 62//28 61//28 125//28 126//28
f 47//10 46//10 110//10 111//10
f 19//36 20//36 84//36 83//36
f 69//31 68//31 132//31 133//31
f 54//14 53//14 117//14 118//14
f 26//12 27//12 91//12 90//12
f 11//37 12//37 76//37 75//37
f 61//34 60//34 124//34 125//34
f 33//16 34//16 98//16 97//16
f 46//19 45//19 109//19 110//19
f 18//38 19//38 83//38 82//38
f 68//36 67//36 131//36 132//36
f 25//20 26//20 90//20 89//20
f 53//22 52//22 116//22 117//22
f 10//39 11//39 75//39 74//39
f 32//23 33//23 97//23 96//23
f 60//37 59//37 123//37 124//37
f 45//25 44//25 108//25 109//25
f 17//40 18//40 82//40 81//40
f 39//26 40//26 104//26 103//26
f 67//38 66//38 130//38 131//38
f 52//29 51//29 115//29 116//29
f 24//27 25//27 89//27 88//27
f 9//11 10//11 74//11 73//11
f 31//30 32//30 96//30 95//30
f 59//39 58//39 122//39 123//39
f 44//32 43//32 107//32 108//32
f 16//15 17//15 81//15 80//15
f 38//33 39//33 103//33 102//33
f 66//40 65//40 129//40 130//40
f 51//35 50//35 114//35 115//35
f 23//18 24//18 88//18 87//18
