# Blender3D v248 OBJ File: 
# www.blender3d.org
mtllib Anachron.mtl
v 0.085207 -0.056753 0.461982
v 0.080817 -0.056753 0.377018
v 0.199743 -0.095379 -0.086510
v 0.087349 -0.095379 -0.156745
v 0.032661 0.000432 -0.388986
v 0.085207 0.183450 0.461982
v 0.199743 0.273577 0.274493
v 0.199743 0.251011 -0.007022
v 0.026092 0.176094 -0.388986
v 0.051397 0.094429 -0.388986
v 0.089031 0.064215 -0.156100
v 0.069912 0.331654 0.019987
v 0.056205 0.331655 -0.162736
v 0.104616 0.273577 0.226468
v 0.082484 0.388968 0.194989
v 0.079686 0.388968 0.051174
v 0.103052 0.273577 0.034087
v 0.194536 0.149557 -0.087291
v 0.199743 -0.095379 0.274493
v -0.085207 -0.056753 0.461982
v -0.000000 0.067299 0.606044
v -0.080817 -0.056753 0.377018
v -0.199743 -0.095379 0.274493
v -0.199743 -0.095379 -0.086510
v -0.087349 -0.095379 -0.156745
v -0.032661 0.000432 -0.388986
v -0.085207 0.183450 0.461982
v 0.080817 0.183450 0.377018
v -0.080817 0.183450 0.377018
v -0.000000 0.273577 0.274493
v -0.069912 0.331654 0.019987
v -0.056205 0.331655 -0.162736
v -0.026092 0.176094 -0.388986
v -0.199743 0.251011 -0.007022
v -0.051398 0.094429 -0.388986
v -0.000000 0.102108 -0.450528
v -0.103053 0.273577 0.034087
v -0.089031 0.064215 -0.156100
v -0.079686 0.388968 0.051174
v -0.000000 0.388968 0.243014
v -0.082485 0.388968 0.194989
v -0.104616 0.273577 0.226468
v -0.199743 0.273577 0.274493
v -0.194537 0.149557 -0.087291
v -0.279398 0.121051 -0.205750
v -0.312741 0.064773 -0.235237
v -0.246055 0.064773 -0.235237
v -0.279398 0.008495 -0.261071
v -0.279398 0.121051 0.093064
v -0.312740 0.064773 0.093064
v -0.246055 0.064773 0.093064
v -0.279398 0.008495 0.093064
v 0.279400 0.121051 -0.205748
v 0.312743 0.064773 -0.235235
v 0.246057 0.064773 -0.235235
v 0.279400 0.008495 -0.261069
v 0.279400 0.121051 0.093066
v 0.312743 0.064773 0.093066
v 0.246057 0.064773 0.093066
v 0.279400 0.008495 0.093066
v 0.894973 0.062109 0.284351
v 0.925339 0.061094 0.626438
v 0.725615 -0.008608 0.453674
v 0.666436 0.061094 0.807901
v 0.387815 -0.008608 0.620599
v 0.283194 0.061095 0.910275
v 0.107737 -0.008608 0.604975
v 0.807253 -0.008608 0.268772
v 0.450926 -0.008608 0.365002
v 0.147532 -0.008608 0.491597
v 0.750285 0.062109 -0.200356
v 0.655748 -0.008608 -0.244281
v 0.397546 -0.008608 -0.030392
v 0.077118 -0.008608 0.382091
v 0.505524 0.062109 -0.639373
v 0.235400 0.062109 -0.935127
v 0.340381 -0.008608 -0.643959
v 0.112812 -0.008608 0.140670
v 0.725615 0.328465 0.453674
v 0.807253 0.328465 0.268772
v 0.387815 0.328465 0.620599
v 0.107737 0.328465 0.604975
v 0.147532 0.128465 0.491597
v 0.655748 0.128465 -0.244281
v 0.397546 0.128465 -0.030392
v 0.112812 0.128465 0.140670
v 0.077118 0.128465 0.382091
v 0.340381 0.128465 -0.643959
v 0.391070 0.128465 -0.365226
v 0.438627 0.128465 -0.642178
v 0.438627 -0.008608 -0.642178
v 0.391070 0.128465 -0.365226
v 0.391070 -0.008608 -0.365226
v 0.894973 0.062109 0.284351
v -0.894973 0.062109 0.284351
v -0.925339 0.061094 0.626438
v -0.725615 -0.008608 0.453674
v -0.666436 0.061094 0.807901
v -0.283194 0.061095 0.910275
v -0.107737 -0.008608 0.604975
v -0.807253 -0.008608 0.268772
v -0.387815 -0.008608 0.620599
v -0.147532 -0.008608 0.491597
v -0.750285 0.062109 -0.200356
v -0.655748 -0.008608 -0.244281
v -0.397546 -0.008608 -0.030392
v -0.077118 -0.008608 0.382091
v -0.505524 0.062109 -0.639373
v -0.235400 0.062109 -0.935127
v -0.340381 -0.008608 -0.643959
v -0.112812 -0.008608 0.140670
v -0.725615 0.328465 0.453674
v -0.807253 0.328465 0.268772
v -0.107737 0.328465 0.604975
v -0.387815 0.328465 0.620599
v -0.147532 0.128465 0.491597
v -0.655748 0.128465 -0.244281
v -0.397546 0.128465 -0.030392
v -0.112812 0.128465 0.140670
v -0.077118 0.128465 0.382091
v -0.340381 0.128465 -0.643959
v -0.391070 0.128465 -0.365226
v -0.438627 0.128465 -0.642178
v -0.438627 -0.008608 -0.642178
v -0.391070 0.128465 -0.365226
v -0.391070 -0.008608 -0.365226
v -0.894973 0.062109 0.284351
vt 0.114544 0.143449
vt 0.272684 0.143450
vt 0.193614 0.009763
vt 0.118618 0.222295
vt 0.008257 0.317435
vt 0.378970 0.317435
vt 0.268610 0.222295
vt 0.008257 0.652437
vt 0.101691 0.712117
vt 0.285537 0.712117
vt 0.159787 0.933127
vt 0.227441 0.933127
vt 0.258490 0.553610
vt 0.245771 0.723173
vt 0.141457 0.723173
vt 0.128737 0.553610
vt 0.217827 0.933127
vt 0.169401 0.933127
vt 0.272684 0.143449
vt 0.378970 0.652437
vt 0.378970 0.578674
vt 0.246847 0.933127
vt 0.287307 0.711438
vt 0.193614 0.990237
vt 0.097984 0.540525
vt 0.289244 0.540525
vt 0.193614 0.346647
vt 0.270157 0.391213
vt 0.267561 0.524670
vt 0.193614 0.317435
vt 0.290695 0.362001
vt 0.374139 0.653162
vt 0.008257 0.578674
vt 0.099921 0.711438
vt 0.140381 0.933127
vt 0.119667 0.524670
vt 0.117070 0.391213
vt 0.096533 0.362001
vt 0.013089 0.653162
vt 0.293657 0.791249
vt 0.398466 0.686440
vt 0.503276 0.791249
vt 0.907950 0.994720
vt 0.821450 0.994720
vt 0.821450 0.383073
vt 0.907950 0.383073
vt 0.994450 0.994720
vt 0.994450 0.383073
vt 0.293684 0.791249
vt 0.398494 0.686440
vt 0.503303 0.791249
vt 0.906439 0.994720
vt 0.906438 0.383073
vt 0.992938 0.383073
vt 0.992938 0.994720
vt 0.819938 0.383073
vt 0.819939 0.994720
vt 0.398466 0.896058
vt 0.398494 0.896058
vt 0.822312 0.340021
vt 0.838716 0.155961
vt 0.774924 0.348404
vt 0.730823 0.248917
vt 0.698853 0.058323
vt 0.549209 0.159760
vt 0.693079 0.624454
vt 0.744150 0.600820
vt 0.553595 0.509370
vt 0.548338 0.159102
vt 0.399778 0.417330
vt 0.418534 0.228512
vt 0.380496 0.287432
vt 0.611926 0.837034
vt 0.575787 0.838544
vt 0.466001 0.996166
vt 0.522714 0.839502
vt 0.491820 0.003241
vt 0.397036 0.167508
vt 0.550097 0.689529
vt 0.549883 0.159711
vn 0.000000 -0.757773 0.652519
vn 0.000000 -1.000000 0.000000
vn 0.000000 -0.935790 0.352558
vn 0.000000 -0.924423 -0.381368
vn 0.000000 1.000000 0.000001
vn -0.000000 0.824018 -0.566563
vn 0.860719 0.000000 0.509080
vn 0.998668 0.000000 -0.051599
vn 1.000000 0.000000 0.000000
vn 0.964543 -0.192263 -0.180811
vn 0.972471 -0.009309 -0.232838
vn 0.000000 -0.517810 -0.855496
vn 0.000000 0.639490 -0.768800
vn 0.749660 -0.149430 -0.644733
vn 0.760192 0.235560 -0.605492
vn 0.948835 0.294014 -0.115185
vn 0.000000 0.235933 0.971769
vn 0.973502 0.114581 -0.197902
vn 0.873439 0.482506 -0.065521
vn 0.971506 0.114091 -0.207748
vn 0.000000 1.000000 0.000000
vn 0.396430 0.311615 0.863562
vn 0.489736 0.229464 0.841133
vn 0.979846 0.199594 -0.007961
vn 0.982873 0.183291 -0.019123
vn 0.000000 0.146476 -0.989214
vn 0.194863 0.977694 -0.078373
vn 0.529921 0.008560 -0.848004
vn 0.995635 0.020874 -0.090965
vn -0.064332 0.673364 -0.736507
vn 0.547632 -0.002391 -0.836716
vn 0.652947 0.000000 0.757403
vn 0.000000 0.751055 0.660240
vn -0.182181 0.615820 -0.766535
vn 0.652947 -0.000000 0.757404
vn 0.000000 0.778490 0.627657
vn -0.860719 0.000000 0.509080
vn -0.998668 0.000000 -0.051599
vn -1.000000 0.000000 0.000000
vn -0.972471 -0.009309 -0.232838
vn -0.964543 -0.192263 -0.180811
vn -0.749660 -0.149430 -0.644733
vn -0.760192 0.235560 -0.605492
vn -0.948835 0.294014 -0.115185
vn -0.873439 0.482506 -0.065521
vn -0.973502 0.114581 -0.197903
vn -0.971506 0.114091 -0.207748
vn -0.489736 0.229464 0.841133
vn -0.396430 0.311615 0.863562
vn -0.982873 0.183291 -0.019123
vn -0.979846 0.199594 -0.007961
vn -0.194863 0.977694 -0.078373
vn -0.529921 0.008560 -0.848003
vn -0.995635 0.020874 -0.090964
vn 0.064332 0.673364 -0.736507
vn -0.547632 -0.002391 -0.836716
vn -0.652947 0.000000 0.757403
vn 0.182181 0.615820 -0.766535
vn 0.000000 0.417185 -0.908822
vn -0.860340 0.509720 0.000000
vn -0.860341 0.509718 -0.000000
vn -0.860341 -0.509719 0.000000
vn -0.860340 -0.509720 -0.000000
vn 0.860341 -0.509718 -0.000000
vn 0.860340 -0.509720 0.000000
vn 0.860340 0.509720 -0.000000
vn 0.860341 0.509719 0.000000
vn 0.000002 0.417186 -0.908821
vn 0.860340 0.509720 0.000001
vn 0.860341 -0.509719 0.000000
vn -0.860341 0.509719 0.000000
vn 0.000000 0.464103 -0.885781
vn 0.000002 0.464103 -0.885782
vn 0.632818 -0.772090 -0.058464
vn 0.243438 -0.963943 0.107482
vn -0.059142 -0.981293 0.183212
vn 0.000000 0.000000 0.000000
vn 0.643510 -0.740942 -0.192092
vn 0.612929 -0.557608 -0.559813
vn 0.004305 -0.971383 -0.237477
vn 0.947956 0.307328 -0.083236
vn 0.665109 0.686582 0.293658
vn -0.037399 0.741015 0.670447
vn 0.048239 0.499832 -0.864778
vn 0.889220 0.271308 -0.368348
vn -0.342324 0.927346 -0.151142
vn -0.499123 0.863383 -0.073794
vn 0.641664 0.682400 -0.350138
vn -0.654217 0.000000 0.756307
vn 0.986330 0.000000 0.164781
vn -0.557903 0.000000 0.829906
vn 0.940537 0.000000 0.339691
vn -0.867017 0.000000 0.498278
vn -0.943565 0.000000 -0.331189
vn -0.841120 0.000000 0.540849
vn -0.514986 0.000000 -0.857198
vn -0.999813 0.000000 0.019336
vn -0.983863 0.000000 0.178921
vn -0.940722 0.000000 0.339180
vn -0.012805 -0.973212 0.229552
vn 0.209502 -0.976439 0.051729
vn 0.004053 0.974676 -0.223585
vn 0.600385 0.582102 -0.548356
vn 0.679730 -0.627975 -0.378964
vn -0.240336 0.926317 -0.290129
vn 0.299538 0.736780 0.606162
vn -0.144572 0.945254 -0.292565
vn -0.701463 0.551820 0.451048
vn -0.175144 0.940391 -0.291529
vn 0.636450 -0.748070 -0.187943
vn 0.660309 -0.658914 -0.360312
vn 0.662230 0.652026 -0.369207
vn 0.620786 0.761765 -0.185309
vn -0.632818 -0.772090 -0.058464
vn -0.243438 -0.963943 0.107482
vn -0.103078 -0.972555 0.208594
vn -0.643510 -0.740942 -0.192092
vn -0.612929 -0.557608 -0.559813
vn -0.004305 -0.971383 -0.237477
vn -0.947956 0.307328 -0.083236
vn -0.665109 0.686582 0.293658
vn 0.037399 0.741015 0.670447
vn -0.048239 0.499832 -0.864778
vn -0.889220 0.271308 -0.368348
vn 0.342324 0.927346 -0.151142
vn 0.499123 0.863383 -0.073794
vn -0.641664 0.682400 -0.350138
vn 0.654217 0.000000 0.756307
vn -0.986330 0.000000 0.164781
vn 0.557903 0.000000 0.829906
vn -0.940537 0.000000 0.339691
vn 0.867017 0.000000 0.498278
vn 0.943565 0.000000 -0.331189
vn 0.841120 0.000000 0.540849
vn 0.514986 0.000000 -0.857198
vn 0.999813 0.000000 0.019336
vn 0.983863 0.000000 0.178921
vn 0.940722 0.000000 0.339180
vn 0.012805 -0.973212 0.229552
vn -0.004053 0.974676 -0.223585
vn -0.600385 0.582102 -0.548357
vn -0.679730 -0.627975 -0.378964
vn 0.240336 0.926317 -0.290129
vn -0.299538 0.736780 0.606162
vn 0.144572 0.945254 -0.292565
vn 0.701463 0.551820 0.451048
vn 0.175144 0.940391 -0.291529
vn -0.636450 -0.748070 -0.187943
vn -0.660309 -0.658914 -0.360312
vn -0.662230 0.652026 -0.369207
vn -0.620786 0.761765 -0.185309
#usemtl ss3
s off
f 20/1/1 1/2/1 21/3/1
f 22/4/2 1/2/2 20/1/2
f 23/5/3 19/6/3 2/7/3
f 2/7/3 22/4/3 23/5/3
f 24/8/2 19/6/2 23/5/2
f 24/8/2 25/9/2 4/10/2
f 25/9/4 26/11/4 5/12/4
f 5/12/4 4/10/4 25/9/4
f 12/13/5 13/14/5 32/15/5
f 32/15/5 31/16/5 12/13/5
f 32/15/6 13/14/6 9/17/6
f 9/17/6 33/18/6 32/15/6
f 1/2/7 6/19/7 21/3/7
f 1/2/8 2/7/8 28/7/8
f 19/6/9 3/20/9 8/21/9
f 5/12/10 10/22/10 11/23/10
f 11/23/11 4/10/11 5/12/11
f 5/12/12 26/11/12 36/24/12
f 33/18/13 9/17/13 36/24/13
f 10/22/14 5/12/14 36/24/14
f 36/24/15 9/17/15 10/22/15
f 10/22/16 9/17/16 11/23/16
f 37/25/17 17/26/17 12/13/17
f 12/13/17 31/16/17 37/25/17
f 17/26/18 11/23/18 13/14/18
f 13/14/19 12/13/19 17/26/19
f 9/17/20 13/14/20 11/23/20
f 40/27/21 15/28/21 16/29/21
f 30/30/22 14/31/22 15/28/22
f 15/28/23 40/27/23 30/30/23
f 14/31/24 17/26/24 16/29/24
f 16/29/25 15/28/25 14/31/25
f 17/26/26 37/25/26 16/29/26
f 17/26/21 14/31/21 7/6/21
f 7/6/27 8/21/27 17/26/27
f 3/20/28 4/10/28 18/32/28
f 18/32/29 8/21/29 3/20/29
f 18/32/30 11/23/30 17/26/30
f 11/23/31 18/32/31 4/10/31
f 8/21/9 7/6/9 19/6/9
f 7/6/32 28/7/32 19/6/32
f 14/31/21 30/30/21 7/6/21
f 28/7/33 7/6/33 30/30/33
f 6/19/8 1/2/8 28/7/8
f 17/26/34 8/21/34 18/32/34
f 4/10/2 3/20/2 24/8/2
f 19/6/2 24/8/2 3/20/2
f 2/7/2 1/2/2 22/4/2
f 19/6/35 28/7/35 2/7/35
f 21/3/36 6/19/36 27/1/36
f 6/19/21 28/7/21 27/1/21
f 28/7/33 30/30/33 29/4/33
f 20/1/37 21/3/37 27/1/37
f 29/4/38 22/4/38 20/1/38
f 23/5/39 34/33/39 24/8/39
f 26/11/40 25/9/40 38/34/40
f 38/34/41 35/35/41 26/11/41
f 35/35/42 36/24/42 26/11/42
f 36/24/43 35/35/43 33/18/43
f 35/35/44 38/34/44 33/18/44
f 37/25/45 31/16/45 32/15/45
f 32/15/46 38/34/46 37/25/46
f 33/18/47 38/34/47 32/15/47
f 39/36/21 41/37/21 40/27/21
f 40/27/21 16/29/21 39/36/21
f 30/30/48 40/27/48 41/37/48
f 41/37/49 42/38/49 30/30/49
f 42/38/50 41/37/50 39/36/50
f 39/36/51 37/25/51 42/38/51
f 37/25/26 39/36/26 16/29/26
f 37/25/52 34/33/52 43/5/52
f 43/5/21 42/38/21 37/25/21
f 24/8/53 44/39/53 25/9/53
f 44/39/54 24/8/54 34/33/54
f 44/39/55 37/25/55 38/34/55
f 38/34/56 25/9/56 44/39/56
f 34/33/39 23/5/39 43/5/39
f 43/5/57 23/5/57 29/4/57
f 42/38/21 43/5/21 30/30/21
f 29/4/33 30/30/33 43/5/33
f 27/1/21 28/7/21 29/4/21
f 29/4/38 20/1/38 27/1/38
f 37/25/58 44/39/58 34/33/58
f 23/5/57 22/4/57 29/4/57
f 47/40/59 48/41/59 46/42/59
f 45/43/60 46/44/60 50/45/60
f 50/45/61 49/46/61 45/43/61
f 46/44/62 48/43/62 52/46/62
f 52/46/63 50/45/63 46/44/63
f 48/43/64 47/47/64 51/48/64
f 51/48/65 52/46/65 48/43/65
f 47/47/66 45/43/66 49/46/66
f 49/46/67 51/48/67 47/47/67
f 54/49/68 56/50/68 55/51/68
f 53/52/69 57/53/69 58/54/69
f 58/54/67 54/55/67 53/52/67
f 54/55/70 58/54/70 60/53/70
f 60/53/70 56/52/70 54/55/70
f 56/52/62 60/53/62 59/56/62
f 59/56/62 55/57/62 56/52/62
f 55/57/60 59/56/60 57/53/60
f 57/53/71 53/52/71 55/57/71
f 46/42/72 45/58/72 47/40/72
f 55/51/73 53/59/73 54/49/73
f 61/60/74 62/61/74 68/62/74
f 62/61/75 63/63/75 68/62/75
f 63/63/76 64/64/76 69/65/76
f 94/60/77 61/60/77 72/66/77
f 72/66/78 71/67/78 94/60/78
f 68/62/2 73/68/2 72/66/2
f 73/68/2 65/69/2 78/70/2
f 65/69/2 70/71/2 74/72/2
f 75/73/79 91/74/79 76/75/79
f 91/74/80 77/76/80 76/75/80
f 62/61/81 61/60/81 80/62/81
f 62/61/82 80/62/82 79/63/82
f 66/77/83 81/65/83 82/78/83
f 81/65/84 83/71/84 82/78/84
f 61/60/77 94/60/77 84/66/77
f 84/66/85 80/62/85 61/60/85
f 80/62/86 85/68/86 79/63/86
f 81/65/87 86/70/87 87/72/87
f 71/67/88 90/74/88 84/66/88
f 92/79/21 90/74/21 88/76/21
f 85/68/21 84/66/21 92/79/21
f 92/79/77 89/79/77 85/68/77
f 62/61/89 79/63/89 63/63/89
f 63/63/90 79/63/90 64/64/90
f 64/64/91 81/65/91 65/69/91
f 65/69/92 81/65/92 66/77/92
f 66/77/93 82/78/93 67/78/93
f 67/78/94 82/78/94 83/71/94
f 70/71/95 83/71/95 87/72/95
f 78/70/96 86/70/96 85/68/96
f 73/68/97 85/68/97 89/79/97
f 93/79/98 89/79/98 88/76/98
f 77/76/99 88/76/99 76/75/99
f 65/69/100 66/77/100 67/78/100
f 65/69/101 69/65/101 64/64/101
f 88/76/102 90/74/102 76/75/102
f 90/74/103 75/73/103 76/75/103
f 93/79/2 91/74/2 72/66/2
f 91/74/104 75/73/104 71/67/104
f 89/79/77 92/79/77 88/76/77
f 93/79/2 72/66/2 73/68/2
f 85/68/105 80/62/105 84/66/105
f 73/68/2 63/63/2 69/65/2
f 90/74/21 92/79/21 84/66/21
f 91/74/2 93/79/2 77/76/2
f 79/63/106 81/65/106 64/64/106
f 79/63/107 85/68/107 81/65/107
f 63/63/2 73/68/2 68/62/2
f 81/65/108 87/72/108 83/71/108
f 65/69/2 74/72/2 78/70/2
f 70/71/2 65/69/2 67/78/2
f 81/65/109 85/68/109 86/70/109
f 65/69/2 73/68/2 69/65/2
f 67/78/94 83/71/94 70/71/94
f 70/71/95 87/72/95 74/72/95
f 78/70/96 85/68/96 73/68/96
f 73/68/97 89/79/97 93/79/97
f 93/79/98 88/76/98 77/76/98
f 72/66/110 61/60/110 68/62/110
f 91/74/111 71/67/111 72/66/111
f 90/74/112 71/67/112 75/73/112
f 84/66/113 94/60/113 71/67/113
f 95/60/114 101/62/114 96/61/114
f 96/61/115 101/62/115 97/63/115
f 97/63/116 102/65/116 98/64/116
f 127/60/117 104/67/117 105/66/117
f 105/66/77 95/60/77 127/60/77
f 101/62/2 105/66/2 106/68/2
f 106/68/2 111/70/2 102/65/2
f 102/65/2 107/72/2 103/71/2
f 108/73/118 109/75/118 124/74/118
f 124/74/119 109/75/119 110/76/119
f 96/61/120 113/62/120 95/60/120
f 96/61/121 112/63/121 113/62/121
f 99/77/122 114/78/122 115/80/122
f 115/80/123 114/78/123 116/71/123
f 95/60/124 113/62/124 117/66/124
f 117/66/77 127/60/77 95/60/77
f 113/62/125 112/63/125 118/68/125
f 115/80/126 120/72/126 119/70/126
f 104/67/127 117/66/127 123/74/127
f 125/79/21 121/76/21 123/74/21
f 118/68/77 122/79/77 125/79/77
f 125/79/21 117/66/21 118/68/21
f 96/61/128 97/63/128 112/63/128
f 97/63/129 98/64/129 112/63/129
f 98/64/130 102/65/130 115/80/130
f 102/65/131 99/77/131 115/80/131
f 99/77/132 100/78/132 114/78/132
f 100/78/133 116/71/133 114/78/133
f 103/71/134 120/72/134 116/71/134
f 111/70/135 118/68/135 119/70/135
f 106/68/136 122/79/136 118/68/136
f 126/79/137 121/76/137 122/79/137
f 110/76/138 109/75/138 121/76/138
f 102/65/139 100/78/139 99/77/139
f 121/76/140 109/75/140 123/74/140
f 123/74/141 109/75/141 108/73/141
f 126/79/2 105/66/2 124/74/2
f 124/74/142 104/67/142 108/73/142
f 122/79/77 121/76/77 125/79/77
f 126/79/2 106/68/2 105/66/2
f 118/68/143 117/66/143 113/62/143
f 106/68/2 102/65/2 97/63/2
f 123/74/21 117/66/21 125/79/21
f 124/74/2 110/76/2 126/79/2
f 112/63/144 98/64/144 115/80/144
f 112/63/145 115/80/145 118/68/145
f 97/63/2 101/62/2 106/68/2
f 115/80/146 116/71/146 120/72/146
f 102/65/2 111/70/2 107/72/2
f 103/71/2 100/78/2 102/65/2
f 115/80/147 119/70/147 118/68/147
f 100/78/133 103/71/133 116/71/133
f 103/71/134 107/72/134 120/72/134
f 111/70/135 106/68/135 118/68/135
f 106/68/136 126/79/136 122/79/136
f 126/79/137 110/76/137 121/76/137
f 105/66/148 101/62/148 95/60/148
f 124/74/149 105/66/149 104/67/149
f 123/74/150 108/73/150 104/67/150
f 117/66/151 104/67/151 127/60/151
